<?xml version="1.0" encoding="UTF-8" standalone="no"?>
<!-- Created with Inkscape (http://www.inkscape.org/) -->

<svg
   xmlns:dc="http://purl.org/dc/elements/1.1/"
   xmlns:cc="http://creativecommons.org/ns#"
   xmlns:rdf="http://www.w3.org/1999/02/22-rdf-syntax-ns#"
   xmlns:svg="http://www.w3.org/2000/svg"
   xmlns="http://www.w3.org/2000/svg"
   xmlns:xlink="http://www.w3.org/1999/xlink"
   xmlns:sodipodi="http://sodipodi.sourceforge.net/DTD/sodipodi-0.dtd"
   xmlns:inkscape="http://www.inkscape.org/namespaces/inkscape"
   width="512"
   height="512"
   id="svg2"
   version="1.1"
   inkscape:version="0.48.1 "
   sodipodi:docname="mic.svg"
   inkscape:export-filename="C:\projects\springworkspace\droid\wherewerewe\WhereWereWe\res\drawable-hdpi\mic.png"
   inkscape:export-xdpi="8.4399996"
   inkscape:export-ydpi="8.4399996">
  <defs
     id="defs4">
    <linearGradient
       id="linearGradient5301">
      <stop
         style="stop-color:#17691b;stop-opacity:1;"
         offset="0"
         id="stop5303" />
      <stop
         id="stop3755"
         offset="0.60508084"
         style="stop-color:#31cf3b;stop-opacity:1;" />
      <stop
         style="stop-color:#ffffff;stop-opacity:1;"
         offset="1"
         id="stop5305" />
    </linearGradient>
    <linearGradient
       inkscape:collect="always"
       xlink:href="#linearGradient5301"
       id="linearGradient5309"
       x1="88.160378"
       y1="472.74792"
       x2="394.43649"
       y2="-26.131758"
       gradientUnits="userSpaceOnUse" />
  </defs>
  <sodipodi:namedview
     id="base"
     pagecolor="#ffffff"
     bordercolor="#666666"
     borderopacity="1.0"
     inkscape:pageopacity="0.0"
     inkscape:pageshadow="2"
     inkscape:zoom="0.81983696"
     inkscape:cx="253.60385"
     inkscape:cy="258.04663"
     inkscape:document-units="px"
     inkscape:current-layer="layer1"
     showgrid="false"
     inkscape:window-width="770"
     inkscape:window-height="621"
     inkscape:window-x="-32000"
     inkscape:window-y="-32000"
     inkscape:window-maximized="0" />
  <metadata
     id="metadata7">
    <rdf:RDF>
      <cc:Work
         rdf:about="">
        <dc:format>image/svg+xml</dc:format>
        <dc:type
           rdf:resource="http://purl.org/dc/dcmitype/StillImage" />
        <dc:title></dc:title>
      </cc:Work>
    </rdf:RDF>
  </metadata>
  <g
     inkscape:label="Layer 1"
     inkscape:groupmode="layer"
     id="layer1"
     transform="translate(0,-540.36218)">
    <path
       style="color:#000000;fill:url(#linearGradient5309);fill-opacity:1;fill-rule:nonzero;stroke:#000000;stroke-width:3;marker:none;visibility:visible;display:inline;overflow:visible;enable-background:accumulate;stroke-opacity:1;stroke-miterlimit:4;stroke-dasharray:none"
       d="M 248.34375 48.34375 C 201.41318 48.34375 163.65625 82.284798 163.65625 124.46875 L 163.65625 297.46875 C 163.65625 339.6527 201.41318 373.59375 248.34375 373.59375 L 267.84375 373.59375 C 314.77432 373.59375 352.53125 339.6527 352.53125 297.46875 L 352.53125 124.46875 C 352.53125 82.284798 314.77432 48.34375 267.84375 48.34375 L 248.34375 48.34375 z M 363.625 197.28125 L 363.625 214.46875 L 363.65625 214.46875 L 363.65625 304.90625 C 363.65625 350.23165 321.53183 386.71875 269.21875 386.71875 L 247.53125 386.71875 C 195.21817 386.71875 153.09375 350.23165 153.09375 304.90625 L 153.09375 214.53125 L 153.09375 214.375 L 153.09375 199.28125 L 122.59375 199.28125 L 122.59375 214.53125 L 137.4375 214.53125 L 137.4375 313.53125 C 137.4375 361.48659 183.02055 400.34201 240.625 402.5 L 240.625 463.5 L 231.75 463.5 L 231.75 484.875 L 292.75 484.875 L 292.75 463.5 L 284.625 463.5 L 284.625 401.84375 C 337.89811 396.20247 378.8125 358.95491 378.8125 313.53125 L 378.8125 214.46875 L 394.15625 214.46875 L 394.15625 199.21875 L 363.65625 199.21875 L 363.65625 197.28125 L 363.625 197.28125 z "
       transform="translate(0,540.36218)"
       id="rect2987" />
  </g>
</svg>
