<?xml version="1.0" encoding="UTF-8" standalone="no"?>
<!-- Created with Inkscape (http://www.inkscape.org/) -->

<svg
   xmlns:dc="http://purl.org/dc/elements/1.1/"
   xmlns:cc="http://creativecommons.org/ns#"
   xmlns:rdf="http://www.w3.org/1999/02/22-rdf-syntax-ns#"
   xmlns:svg="http://www.w3.org/2000/svg"
   xmlns="http://www.w3.org/2000/svg"
   xmlns:xlink="http://www.w3.org/1999/xlink"
   xmlns:sodipodi="http://sodipodi.sourceforge.net/DTD/sodipodi-0.dtd"
   xmlns:inkscape="http://www.inkscape.org/namespaces/inkscape"
   width="400"
   height="400"
   id="svg2"
   version="1.1"
   inkscape:version="0.48.1 "
   sodipodi:docname="wherewerewe2.svg"
   inkscape:export-filename="C:\projects\springworkspace\droid\wherewerewe\res\drawable-hdpi\icontrip.png"
   inkscape:export-xdpi="14.36409"
   inkscape:export-ydpi="14.36409">
  <defs
     id="defs4">
    <linearGradient
       inkscape:collect="always"
       id="linearGradient7081">
      <stop
         style="stop-color:#f2ffff;stop-opacity:1;"
         offset="0"
         id="stop7083" />
      <stop
         style="stop-color:#f2ffff;stop-opacity:0;"
         offset="1"
         id="stop7085" />
    </linearGradient>
    <linearGradient
       id="linearGradient7069">
      <stop
         style="stop-color:#eef426;stop-opacity:1;"
         offset="0"
         id="stop7071" />
      <stop
         style="stop-color:#fc530e;stop-opacity:1;"
         offset="1"
         id="stop7073" />
    </linearGradient>
    <linearGradient
       id="linearGradient3769">
      <stop
         style="stop-color:#120447;stop-opacity:1;"
         offset="0"
         id="stop3771" />
      <stop
         id="stop3777"
         offset="1"
         style="stop-color:#836cd7;stop-opacity:1;" />
    </linearGradient>
    <linearGradient
       inkscape:collect="always"
       xlink:href="#linearGradient3769"
       id="linearGradient3775"
       x1="180"
       y1="200.00002"
       x2="180"
       y2="430.00003"
       gradientUnits="userSpaceOnUse"
       gradientTransform="translate(0,622.36216)" />
    <linearGradient
       inkscape:collect="always"
       xlink:href="#linearGradient3769"
       id="linearGradient4854"
       x1="180"
       y1="170"
       x2="180"
       y2="400"
       gradientUnits="userSpaceOnUse" />
    <linearGradient
       inkscape:collect="always"
       xlink:href="#linearGradient7081"
       id="linearGradient7087"
       x1="-0.5"
       y1="200"
       x2="400.5"
       y2="200"
       gradientUnits="userSpaceOnUse" />
    <radialGradient
       inkscape:collect="always"
       xlink:href="#linearGradient7069"
       id="radialGradient7089"
       cx="110"
       cy="290"
       fx="110"
       fy="290"
       r="70"
       gradientUnits="userSpaceOnUse" />
  </defs>
  <sodipodi:namedview
     id="base"
     pagecolor="#ffffff"
     bordercolor="#666666"
     borderopacity="1.0"
     inkscape:pageopacity="0.0"
     inkscape:pageshadow="2"
     inkscape:zoom="0.98994949"
     inkscape:cx="157.36587"
     inkscape:cy="206.9421"
     inkscape:document-units="px"
     inkscape:current-layer="layer5"
     showgrid="true"
     fit-margin-top="0"
     fit-margin-left="0"
     fit-margin-right="0"
     fit-margin-bottom="0"
     inkscape:window-width="1000"
     inkscape:window-height="685"
     inkscape:window-x="91"
     inkscape:window-y="187"
     inkscape:window-maximized="0"
     gridtolerance="10">
    <inkscape:grid
       type="xygrid"
       id="grid2985"
       empspacing="5"
       visible="true"
       enabled="true"
       snapvisiblegridlinesonly="true"
       dotted="true" />
  </sodipodi:namedview>
  <metadata
     id="metadata7">
    <rdf:RDF>
      <cc:Work
         rdf:about="">
        <dc:format>image/svg+xml</dc:format>
        <dc:type
           rdf:resource="http://purl.org/dc/dcmitype/StillImage" />
        <dc:title></dc:title>
      </cc:Work>
    </rdf:RDF>
  </metadata>
  <g
     inkscape:groupmode="layer"
     id="layer5"
     inkscape:label="Base">
    <rect
       style="fill:url(#linearGradient7087);fill-opacity:1;fill-rule:evenodd;stroke:#000000;stroke-width:1px;stroke-linecap:butt;stroke-linejoin:miter;stroke-opacity:1"
       id="rect3035"
       width="400"
       height="400"
       x="0"
       y="0"
       inkscape:export-filename="C:\projects\springworkspace\droid\wherewerewe\res\drawable-hdpi\wherewerewe.png"
       inkscape:export-xdpi="89.779999"
       inkscape:export-ydpi="89.779999"
       ry="40"
       rx="42.426407" />
  </g>
  <g
     inkscape:groupmode="layer"
     id="layer2"
     inkscape:label="Floating Head">
    <path
       sodipodi:type="arc"
       style="fill:url(#radialGradient7089);fill-opacity:1.0"
       id="path3780"
       sodipodi:cx="110"
       sodipodi:cy="290"
       sodipodi:rx="70"
       sodipodi:ry="70"
       d="m 180,290 a 70,70 0 1 1 -140,0 70,70 0 1 1 140,0 z"
       transform="translate(-30,-40)" />
  </g>
  <g
     inkscape:groupmode="layer"
     id="layer3"
     inkscape:label="Floating Head Details">
    <path
       sodipodi:type="spiral"
       style="fill:none;stroke:#000000;stroke-width:1px;stroke-linecap:butt;stroke-linejoin:miter;stroke-opacity:1"
       id="path2991"
       sodipodi:cx="80"
       sodipodi:cy="225"
       sodipodi:expansion="1"
       sodipodi:revolution="3"
       sodipodi:radius="7.0710678"
       sodipodi:argument="-18.064157"
       sodipodi:t0="0"
       d="m 80,225 c 0.250692,0.25069 -0.214245,0.46161 -0.416667,0.41667 -0.548549,-0.1218 -0.636732,-0.82442 -0.416666,-1.25 0.393646,-0.76127 1.415859,-0.85045 2.083333,-0.41667 0.979546,0.63659 1.070497,2.01532 0.416666,2.91667 -0.871453,1.20135 -2.617634,1.29324 -3.75,0.41666 -1.424966,-1.10308 -1.517389,-3.2213 -0.416665,-4.58333 1.333124,-1.6496 3.825738,-1.74234 5.416666,-0.41667 1.874855,1.56227 1.967803,4.43065 0.416665,6.25 -1.790849,2.10052 -5.035877,2.19361 -7.083333,0.41667 -2.32645,-2.01907 -2.419637,-5.64133 -0.416665,-7.91667 2.247033,-2.55258 6.246945,-2.64584 8.750001,-0.41666 2.778865,2.47481 2.872181,6.85268 0.416664,9.58333"
       transform="translate(-2.9166675,-2.0833341)" />
    <path
       sodipodi:type="spiral"
       style="fill:none;stroke:#000000;stroke-width:1px;stroke-linecap:butt;stroke-linejoin:miter;stroke-opacity:1"
       id="path2991-5"
       sodipodi:cx="80"
       sodipodi:cy="225"
       sodipodi:expansion="1"
       sodipodi:revolution="3"
       sodipodi:radius="7.0710678"
       sodipodi:argument="-18.064157"
       sodipodi:t0="0"
       d="m 80,225 c 0.250692,0.25069 -0.214245,0.46161 -0.416667,0.41667 -0.548549,-0.1218 -0.636732,-0.82442 -0.416666,-1.25 0.393646,-0.76127 1.415859,-0.85045 2.083333,-0.41667 0.979546,0.63659 1.070497,2.01532 0.416666,2.91667 -0.871453,1.20135 -2.617634,1.29324 -3.75,0.41666 -1.424966,-1.10308 -1.517389,-3.2213 -0.416665,-4.58333 1.333124,-1.6496 3.825738,-1.74234 5.416666,-0.41667 1.874855,1.56227 1.967803,4.43065 0.416665,6.25 -1.790849,2.10052 -5.035877,2.19361 -7.083333,0.41667 -2.32645,-2.01907 -2.419637,-5.64133 -0.416665,-7.91667 2.247033,-2.55258 6.246945,-2.64584 8.750001,-0.41666 2.778865,2.47481 2.872181,6.85268 0.416664,9.58333"
       transform="translate(35.000001,-10.000001)" />
  </g>
  <g
     inkscape:groupmode="layer"
     id="layer4"
     inkscape:label="Sky">
    <path
       style="fill:none;stroke:#000000;stroke-width:2;stroke-linecap:butt;stroke-linejoin:miter;stroke-miterlimit:4;stroke-opacity:1;stroke-dasharray:none"
       d="m 230,55 10,15 5,-10 5,10 5,-10 10,-5"
       id="path3014"
       inkscape:connector-curvature="0"
       sodipodi:nodetypes="cccccc" />
    <path
       style="fill:none;stroke:#000000;stroke-width:2;stroke-linecap:butt;stroke-linejoin:miter;stroke-miterlimit:4;stroke-opacity:1;stroke-dasharray:none"
       d="m 270,25 10,15 5,-10 5,10 5,-10 10,-5"
       id="path3014-4"
       inkscape:connector-curvature="0"
       sodipodi:nodetypes="cccccc" />
  </g>
  <g
     inkscape:label="Mountains"
     inkscape:groupmode="layer"
     id="layer1"
     transform="translate(0,-652.36218)">
    <path
       style="fill:url(#linearGradient3775);stroke:#000000;stroke-width:1px;stroke-linecap:butt;stroke-linejoin:miter;stroke-opacity:1"
       d="m 0,722.36216 80,220.00002 100,-100.00002 100,100.00002 40,-220.00002 80,-20 0,290.00002 -400,0 z"
       id="path2987"
       inkscape:connector-curvature="0"
       sodipodi:nodetypes="ccccccccc" />
  </g>
  <g
     inkscape:groupmode="layer"
     id="layer6"
     inkscape:label="Lower Rectangle">
    <rect
       style="fill:url(#linearGradient4854);fill-opacity:1;stroke-width:2;stroke-miterlimit:4;stroke-dasharray:none"
       id="rect4852"
       width="400"
       height="90"
       x="0"
       y="310"
       ry="39.949238" />
  </g>
</svg>
